<svg id="Layer_1" data-name="Layer 1" xmlns="http://www.w3.org/2000/svg" viewBox="0 0 144.32 32"><defs><style>.cls-1{fill:#e60023;}.cls-2{fill:#fff;}</style></defs><circle class="cls-1" cx="16" cy="16" r="16"/><path class="cls-2" d="M37.62,24.56a.78.78,0,0,1-.78-.78V12.55A5,5,0,0,1,38.2,8.9a4.64,4.64,0,0,1,3.51-1.41A4.19,4.19,0,0,1,45.06,9a.8.8,0,0,0,1.22,0,4.6,4.6,0,0,1,1.18-1,4.81,4.81,0,0,1,2.38-.54A4.25,4.25,0,0,1,53.28,8.9,6.17,6.17,0,0,1,54.48,13v10.8a.78.78,0,0,1-.78.78H50.31a.78.78,0,0,1-.79-.78V13.72a3,3,0,0,0-.12-1.06.52.52,0,0,0-.52-.27c-.49,0-.74.42-.74,1.25V23.78a.78.78,0,0,1-.78.78H44a.78.78,0,0,1-.78-.78V13.72a2.69,2.69,0,0,0-.14-1.06.52.52,0,0,0-.52-.27c-.49,0-.73.45-.73,1.33V23.78a.78.78,0,0,1-.79.78Z"/><path class="cls-2" d="M60.92,12.14A6,6,0,0,1,65.35,14a6.31,6.31,0,0,1,.21,8.71,6.43,6.43,0,0,1-8.89.6,6.15,6.15,0,0,1-2.27-4.85A6,6,0,0,1,56.28,14,6.42,6.42,0,0,1,60.92,12.14Zm-.13,4.5a1.66,1.66,0,0,0-1.24.53,1.91,1.91,0,0,0,0,2.6,1.73,1.73,0,0,0,2.49,0,1.79,1.79,0,0,0,.52-1.3,1.82,1.82,0,0,0-.51-1.3A1.69,1.69,0,0,0,60.79,16.64Z"/><path class="cls-2" d="M76.25,12.39,70.56,25,65,12.39H69.3l1.3,3.29L72,12.39Z"/><path class="cls-2" d="M79.3,12.39V24.56H74.74V12.39ZM77,7a2.26,2.26,0,0,1,1.61.65,2.08,2.08,0,0,1,.67,1.55,2.06,2.06,0,0,1-.64,1.56,2.51,2.51,0,0,1-3.28,0,2.16,2.16,0,0,1,0-3.11A2.24,2.24,0,0,1,77,7Z"/><path class="cls-2" d="M90.85,17.5c.11,1.09-.15,1.71-.77,1.84-.09,0-.93.1-2.52.27-1,.1-2.4.23-4.3.38a1.71,1.71,0,0,0,1,1.2,3.63,3.63,0,0,0,1.61.35A4.61,4.61,0,0,0,88.09,21l.93-.59a3.74,3.74,0,0,1,.86,1.25A4.69,4.69,0,0,1,90.49,23c0,.05-.07.15-.19.28a6,6,0,0,1-4.62,1.6A6.53,6.53,0,0,1,81,23.22a6,6,0,0,1-1.83-4.6A6.55,6.55,0,0,1,80.79,14a5.76,5.76,0,0,1,4.47-1.86,5.3,5.3,0,0,1,3.92,1.65A6,6,0,0,1,90.85,17.5Zm-4.25-.31a1.92,1.92,0,0,0-.53-1.33,1.71,1.71,0,0,0-1.28-.57,1.52,1.52,0,0,0-1.27.64,2.24,2.24,0,0,0-.47,1.41.3.3,0,0,0,.34.33,22.66,22.66,0,0,0,2.81-.28C86.47,17.35,86.6,17.28,86.6,17.19Z"/><path class="cls-2" d="M91.09,20.65a6.87,6.87,0,0,0,2.84,1.16,1.22,1.22,0,0,0,.79-.25A.71.71,0,0,0,95,21a.58.58,0,0,0-.27-.54,19.13,19.13,0,0,0-2-.93,4.73,4.73,0,0,1-2-1.43,3.33,3.33,0,0,1-.61-2,3.75,3.75,0,0,1,1.21-2.88A4.29,4.29,0,0,1,94.49,12,9.81,9.81,0,0,1,99,13.46l-1.48,2.73a5.78,5.78,0,0,0-2.8-1.05c-.64,0-1,.25-1,.76a.77.77,0,0,0,.35.64,4.87,4.87,0,0,0,1.27.6,6.29,6.29,0,0,1,2.51,1.45,3,3,0,0,1,.78,2.14,4,4,0,0,1-1.24,3A4.38,4.38,0,0,1,94.23,25a8.52,8.52,0,0,1-4.45-1.47Z"/><path class="cls-2" d="M121.43,12.14A6,6,0,0,1,125.87,14a6.31,6.31,0,0,1,.21,8.71,6.45,6.45,0,0,1-8.9.6,6.17,6.17,0,0,1-2.26-4.85,6,6,0,0,1,1.87-4.5A6.44,6.44,0,0,1,121.43,12.14Zm-.12,4.5a1.66,1.66,0,0,0-1.24.53,1.79,1.79,0,0,0-.52,1.3,1.83,1.83,0,0,0,.52,1.3,1.73,1.73,0,0,0,2.49,0,1.79,1.79,0,0,0,.52-1.3,1.82,1.82,0,0,0-.51-1.3A1.69,1.69,0,0,0,121.31,16.64Z"/><path class="cls-2" d="M127.62,12.56h4.57v6.56a2.45,2.45,0,0,0,.16,1.07.59.59,0,0,0,.57.3c.51,0,.77-.46.77-1.37V12.56h4.57v6.56a2.45,2.45,0,0,0,.16,1.07.6.6,0,0,0,.58.3c.51,0,.76-.46.76-1.37V12.56h4.56v7.5a4.81,4.81,0,0,1-1.38,3.48A4.45,4.45,0,0,1,139.6,25,4.91,4.91,0,0,1,136,23.27,5.24,5.24,0,0,1,132.37,25a4.54,4.54,0,0,1-3.66-1.66,5.78,5.78,0,0,1-1.09-3.77Z"/><path class="cls-2" d="M114,9.23a4.23,4.23,0,0,0-3.41-1.4,4.79,4.79,0,0,0-2.36.54,4.74,4.74,0,0,0-1.42,1.3.44.44,0,0,1-.69,0,4.42,4.42,0,0,0-1.44-1.3.44.44,0,0,0-.66.38V24.28a.44.44,0,0,0,.44.44h4a.44.44,0,0,0,.44-.44V13.92c0-.83.24-1.24.73-1.24a.5.5,0,0,1,.51.27A2.65,2.65,0,0,1,110.3,14V24.28a.44.44,0,0,0,.44.44h4a.44.44,0,0,0,.44-.44v-11A6.15,6.15,0,0,0,114,9.23Z"/><path class="cls-2" d="M12.15,6.75A4.51,4.51,0,0,0,8.73,8.13,4.91,4.91,0,0,0,7.4,11.69V23a.44.44,0,0,0,.44.43h4a.43.43,0,0,0,.43-.43V6.75ZM23.43,8.13a4.13,4.13,0,0,0-3.36-1.38,4.6,4.6,0,0,0-2.32.54,4.69,4.69,0,0,0-1.41,1.27.42.42,0,0,1-.67,0,4.43,4.43,0,0,0-1.42-1.29.44.44,0,0,0-.66.38V23a.44.44,0,0,0,.44.43h4a.43.43,0,0,0,.43-.43V12.75c0-.81.24-1.22.72-1.22a.5.5,0,0,1,.5.26,2.83,2.83,0,0,1,.13,1V23a.43.43,0,0,0,.43.43h4A.44.44,0,0,0,24.6,23V12.11A6,6,0,0,0,23.43,8.13Z"/></svg>